<?xml version="1.0" encoding="utf-8"?>
<!-- Generator: Adobe Illustrator 28.1.0, SVG Export Plug-In . SVG Version: 6.00 Build 0)  -->
<svg version="1.1" id="Layer_1" xmlns="http://www.w3.org/2000/svg" xmlns:xlink="http://www.w3.org/1999/xlink" x="0px" y="0px"
	 viewBox="0 0 1080 880" style="enable-background:new 0 0 1080 1080;" xml:space="preserve">
<style type="text/css">
	.st0{fill:#602650;}
	.st1{fill:#25C7BC;}
</style>
<g>
	<g>
		<path class="st0" d="M425.2,297.7H462c3.1,0,5.6,2.5,5.6,5.5v36.8c0,3.1-2.5,5.5-5.6,5.5h-36.8c-3.1,0-5.6-2.5-5.6-5.5v-36.8
			C419.7,300.2,422.2,297.7,425.2,297.7"/>
		<path class="st0" d="M478.4,248.9h33.3c2.7,0,4.8,2.2,4.8,4.8V287c0,2.7-2.2,4.8-4.8,4.8h-33.3c-2.7,0-4.8-2.2-4.8-4.8v-33.3
			C473.5,251.1,475.7,248.9,478.4,248.9"/>
		<path class="st0" d="M531.4,200h29.8c2.3,0,4.1,1.9,4.1,4.1v29.8c0,2.3-1.9,4.1-4.1,4.1h-29.8c-2.3,0-4.1-1.9-4.1-4.1v-29.8
			C527.3,201.9,529.1,200,531.4,200"/>
		<path class="st0" d="M583.8,254.4h26.3c1.9,0,3.4,1.5,3.4,3.4v26.3c0,1.9-1.5,3.4-3.4,3.4h-26.3c-1.9,0-3.4-1.5-3.4-3.4v-26.3
			C580.4,256,581.9,254.4,583.8,254.4"/>
		<path class="st0" d="M636.5,308.1h22.9c1.5,0,2.7,1.2,2.7,2.7v22.9c0,1.5-1.2,2.7-2.7,2.7h-22.9c-1.5,0-2.7-1.2-2.7-2.7v-22.9
			C633.8,309.3,635,308.1,636.5,308.1"/>
		<path class="st0" d="M689.8,361.8h19.6c1.1,0,2.1,0.9,2.1,2.1v19.6c0,1.1-0.9,2.1-2.1,2.1h-19.6c-1.1,0-2.1-0.9-2.1-2.1v-19.6
			C687.7,362.7,688.7,361.8,689.8,361.8"/>
		<path class="st0" d="M640.1,415.4h16.3c0.8,0,1.4,0.6,1.4,1.4v16.3c0,0.8-0.6,1.4-1.4,1.4h-16.3c-0.8,0-1.4-0.6-1.4-1.4v-16.3
			C638.7,416,639.4,415.4,640.1,415.4"/>
		<path class="st0" d="M590.4,469h13.1c0.4,0,0.7,0.3,0.7,0.7v13.1c0,0.4-0.3,0.7-0.7,0.7h-13.1c-0.4,0-0.7-0.3-0.7-0.7v-13.1
			C589.7,469.4,590,469,590.4,469"/>
		<path class="st0" d="M540.7,522.6h9.8c0.1,0,0.1,0,0.1,0.1v9.8c0,0.1,0,0.1-0.1,0.1h-9.8c-0.1,0-0.1,0-0.1-0.1v-9.8
			C540.6,522.6,540.7,522.6,540.7,522.6"/>
		<path class="st1" d="M596.9,344.5c-3.1,0-6.1,0.5-8.9,1.4c-8.6,1.5-16.8-7.2-14.4-15.7l0,0c0.7-2.5,1.1-5.1,1.1-7.8
			c0-16-13.1-29.1-29.1-29.1c-16,0-29.1,13.1-29.1,29.1c0,7.7,4.4,13.1-2.4,19.9c-6.8,6.8-12.2,2.4-19.9,2.4
			c-16,0-29.1,13.1-29.1,29.1v0c0,7.6,4.4,13.1-2.5,20c-6.9,6.9-12.4,2.5-20,2.5c-2.7,0-5.3,0.4-7.8,1.1l0,0
			c-10.5,1.7-14.3-3.4-15.7-10.2v-34.6c0-3.5-2.8-6.3-6.3-6.3h-40.4c-3.5,0-6.3,2.8-6.3,6.3v40.4c0,3.5,2.8,6.3,6.3,6.3h27.2
			c9.3,0.8,18.5,4.3,15.1,18.2l0,0c-0.7,2.6-1.1,5.2-1.1,7.9c0,12.5,8,23.2,19.1,27.3c3.1,1.1,6.4,1.8,9.9,1.8v0
			c16,0,29.1-13.1,29.1-29.1c0-7.6-4.7-13.7,2-20.5c6.7-6.7,12.9-2,20.5-2c16,0,29.1-13.1,29.1-29.1v0c0-7.9-4.9-13.6,1.9-20.4
			c6.8-6.8,12.6-1.9,20.4-1.9c2.7,0,5.3-0.4,7.9-1.1l0,0c8.6-3,17.7,4.8,16,13.7c-1.1,3-1.6,6.2-1.6,9.6h0c0,7.7,4.4,13.1-2.4,19.9
			c-6.8,6.8-12.2,2.4-19.9,2.4c-16,0-29.1,13.1-29.1,29.1v0c0,7.6,4.4,13.1-2.4,20c-6.8,6.8-12.1,2.3-19.8,2.3
			c-8,0-15.2,3.2-20.5,8.5c-5.3,5.3-8.6,12.6-8.6,20.6c0,16,13.1,29.1,29.1,29.1c16,0,29.1-13.1,29.1-29.1c0-7.9-5-13.5,1.8-20.3
			c6.7-6.7,12.9-2,20.5-2v0c16,0,29.1-13.1,29.1-29.1v0c0-7.9-4.9-13.6,1.9-20.4c6.8-6.8,12.6-1.9,20.4-1.9v0
			c16,0,29.1-13.1,29.1-29.1h0C626,357.6,612.9,344.5,596.9,344.5"/>
	</g>
	<g>
		<path class="st0" d="M855.2,735.9c-4.4,22.5-19.3,33.7-44.4,33.7h-32.4H601.3h-180c-22.8,0-35.4-10.1-44.2-24.4
			c-1.8,2.5-3.9,4.9-6.1,7.1c-10.8,10.8-25.6,17.5-42,17.5c-16.4,0-31.2-6.7-42-17.5c-10.8-10.8-17.5-25.6-17.5-42v-35.9h-7.1
			c-20.6,0-33.7,18.1-33.7,48V762v4.3c0,1.8-1.5,3.3-3.3,3.3h-24.2c-1.8,0-3.3-1.5-3.3-3.3V762v-46.1c0-44.2,23.6-73,64.5-73
			c20.2,0,40.5,0,60.7,0c45.7,0.4,58,31.7,69.6,61.4c6.8,17.4,13.3,34,28.5,34c44,0,88,0,132,0c-3.6-7-6.6-14.8-9.7-22.6
			c-7.9-20.1-16.2-41.3-40.6-41.4c-30.1,0-60.2,0-90.3,0c-5.3,0-7.9-6.4-4.2-10.1l76.4-76.4c0.3-0.3,0.7-0.4,1.1-0.4h40.1
			c1.4,0,2,1.6,1.1,2.6L474.2,643h28.9c45.7,0.3,58,31.6,69.7,61.3c6.8,17.4,13.3,34,28.5,34h131.8c-3.6-7-6.6-14.8-9.7-22.6
			c-7.9-20.1-16.2-41.3-40.6-41.4c-25,0-50,0-75,0c-1.8,0-3.3-1.5-3.3-3.3v-24.8c0-1.8,1.5-3.3,3.3-3.3c25,0,50.1,0.1,75.1,0.1
			c45.7,0.3,58,31.6,69.7,61.3c7,17.9,13.7,34.9,29.8,34c6.9-0.1,13.8-0.1,20.7-0.2c10.9,1.2,17.4-2.5,20.4-8.8
			c3.8-8,2.2-79.2,2.2-83.1c0-1.8,1.5-3.3,3.3-3.3h24.4c1.8,0,3.3,1.5,3.3,3.3v63.5C856.6,718.5,857,727.1,855.2,735.9 M837,600.8
			c2.9,12.7-8.3,23.9-21,21c-6.4-1.4-11.6-6.6-13-13c-2.9-12.7,8.3-23.9,21-21C830.4,589.2,835.5,594.4,837,600.8 M879.4,600.8
			c2.9,12.7-8.3,23.9-21,21c-6.4-1.4-11.6-6.6-13-13c-2.9-12.7,8.3-23.9,21-21C872.8,589.2,877.9,594.4,879.4,600.8 M322.9,674.3
			h-22v35.9c0,7.7,3.2,14.7,8.2,19.8c5.1,5.1,12.1,8.2,19.8,8.2s14.7-3.2,19.8-8.2c5.1-5.1,8.2-12.1,8.2-19.8
			C356.9,690.7,343.3,674.5,322.9,674.3"/>
		<path class="st1" d="M803.1,825.3c0-0.5,0.3-0.8,0.9-0.8h5.9c0.7,0,1.2,0.3,1.5,0.8l18.5,37.4h0.3l18.1-37.4
			c0.2-0.5,0.7-0.8,1.5-0.8h5.9c0.6,0,0.9,0.3,0.9,0.8v53.9c0,0.5-0.3,0.8-0.9,0.8h-5.8c-0.6,0-0.9-0.3-0.9-0.8v-38.6h-0.3
			l-15.3,30.5c-0.3,0.7-0.8,1-1.6,1H828c-0.8,0-1.4-0.3-1.7-1L811,840.6h-0.3v38.6c0,0.5-0.3,0.8-0.9,0.8H804
			c-0.6,0-0.9-0.3-0.9-0.8V825.3z"/>
		<path class="st1" d="M740.5,857.5c-0.1,1.5-0.2,2.7-0.3,3.8c-0.2,1.1-0.3,2-0.5,2.7c-0.2,0.7-0.3,1.3-0.5,1.8
			c-1,2.7-2.5,4.7-4.7,6.1c-2.2,1.4-5,2.1-8.4,2.1c-3.5,0-6.2-0.7-8.4-2.1c-2.2-1.4-3.7-3.5-4.7-6.1c-0.2-0.5-0.3-1.1-0.5-1.8
			c-0.2-0.7-0.3-1.6-0.5-2.7c-0.2-1.1-0.3-2.4-0.3-3.8c-0.1-1.5-0.1-3.2-0.1-5.2c0-2,0-3.8,0.1-5.2c0.1-1.5,0.2-2.7,0.3-3.8
			c0.2-1.1,0.3-2,0.5-2.7c0.2-0.7,0.3-1.3,0.5-1.8c1-2.7,2.5-4.7,4.7-6.1c2.2-1.4,4.9-2.1,8.4-2.1c3.4,0,6.3,0.7,8.4,2.1
			c2.2,1.4,3.8,3.5,4.7,6.1c0.2,0.5,0.3,1.1,0.5,1.8c0.2,0.7,0.3,1.6,0.5,2.7c0.2,1.1,0.3,2.4,0.3,3.8c0.1,1.5,0.1,3.2,0.1,5.2
			C740.6,854.3,740.5,856,740.5,857.5 M748.6,846.4c-0.1-1.6-0.2-3-0.3-4.2c-0.1-1.2-0.3-2.2-0.5-3.1c-0.2-0.9-0.5-1.7-0.8-2.5
			c-1.6-4.3-4.2-7.5-7.8-9.7c-3.6-2.2-8-3.3-13.3-3.3c-5.2,0-9.6,1.1-13.2,3.3c-3.6,2.2-6.2,5.4-7.8,9.7c-0.3,0.8-0.6,1.7-0.8,2.5
			c-0.2,0.9-0.4,1.9-0.5,3.1c-0.1,1.2-0.2,2.6-0.3,4.2c-0.1,1.6-0.1,3.6-0.1,5.9s0,4.2,0.1,5.9c0.1,1.6,0.2,3,0.3,4.2
			c0.1,1.2,0.3,2.2,0.5,3.1c0.2,0.9,0.5,1.7,0.8,2.5c1.6,4.3,4.2,7.5,7.8,9.7c3.6,2.2,8,3.3,13.2,3.3c5.3,0,9.7-1.1,13.3-3.3
			c3.6-2.2,6.2-5.4,7.8-9.7c0.3-0.8,0.6-1.7,0.8-2.5c0.2-0.9,0.4-1.9,0.5-3.1c0.1-1.2,0.2-2.6,0.3-4.2c0.1-1.6,0.1-3.6,0.1-5.9
			S748.7,848,748.6,846.4"/>
		<path class="st1" d="M603.3,825.3c0-0.5,0.3-0.8,0.9-0.8h6.3c0.6,0,0.9,0.3,0.9,0.8v28.9l26.2-29c0.4-0.5,0.8-0.7,1.5-0.7h7.4
			c0.3,0,0.5,0.1,0.6,0.3c0.1,0.2,0,0.4-0.2,0.7l-19.2,20.8l21.1,32.8c0.4,0.6,0.2,0.9-0.5,0.9H641c-0.5,0-1-0.2-1.3-0.7l-17.3-27.3
			l-11,11.9v15.3c0,0.5-0.3,0.8-0.9,0.8h-6.3c-0.6,0-0.9-0.3-0.9-0.8V825.3z"/>
		<path class="st1" d="M514.9,860.3l9.8-25.1h0.2l9.7,25.1H514.9z M550.1,879.2l-21.1-53.9c-0.2-0.5-0.6-0.8-1.2-0.8h-5.9
			c-0.5,0-0.9,0.3-1.1,0.8l-21.4,53.9c-0.2,0.5,0,0.8,0.6,0.8h6.4c0.5,0,0.9-0.3,1.2-0.8l4.7-12.1h25l4.7,12.1
			c0.2,0.5,0.6,0.8,1.2,0.8h6.4C550.1,880,550.3,879.7,550.1,879.2"/>
		<path class="st1" d="M401.2,825.3c0-0.5,0.3-0.8,0.9-0.8h6.3c0.6,0,0.9,0.3,0.9,0.8v22.8c0,0.3,0.2,0.5,0.5,0.5h26.7
			c0.4,0,0.5-0.2,0.5-0.5v-22.8c0-0.5,0.3-0.8,0.9-0.8h6.3c0.6,0,0.9,0.3,0.9,0.8v53.9c0,0.5-0.3,0.8-0.9,0.8h-6.3
			c-0.6,0-0.9-0.3-0.9-0.8v-23.3c0-0.3-0.2-0.5-0.5-0.5h-26.7c-0.4,0-0.5,0.2-0.5,0.5v23.3c0,0.5-0.3,0.8-0.9,0.8h-6.3
			c-0.6,0-0.9-0.3-0.9-0.8V825.3z"/>
		<path class="st1" d="M311.9,860.3l9.8-25.1h0.2l9.7,25.1H311.9z M347.2,879.2L326,825.3c-0.2-0.5-0.6-0.8-1.2-0.8h-5.9
			c-0.5,0-0.9,0.3-1.1,0.8l-21.4,53.9c-0.2,0.5,0,0.8,0.6,0.8h6.4c0.5,0,0.9-0.3,1.2-0.8l4.7-12.1h25l4.7,12.1
			c0.2,0.5,0.6,0.8,1.2,0.8h6.4C347.1,880,347.3,879.7,347.2,879.2"/>
		<path class="st1" d="M217.2,880c-0.6,0-0.9-0.3-0.9-0.8v-47.4c0-0.3-0.2-0.5-0.5-0.5h-16.9c-0.6,0-0.9-0.3-0.9-0.8v-5.1
			c0-0.5,0.3-0.8,0.9-0.8h43c0.6,0,0.9,0.3,0.9,0.8v5.1c0,0.5-0.3,0.8-0.9,0.8h-16.9c-0.4,0-0.5,0.2-0.5,0.5v47.4
			c0,0.5-0.3,0.8-0.9,0.8H217.2z"/>
	</g>
</g>
</svg>
